<svg xmlns="http://www.w3.org/2000/svg" xmlns:xlink="http://www.w3.org/1999/xlink" contentStyleType="text/css" data-diagram-type="ACTIVITY" height="1591px" preserveAspectRatio="none" style="width:901px;height:1591px;background:#FFFFFF;" version="1.1" viewBox="0 0 901 1591" width="901px" zoomAndPan="magnify"><title>EasySave 3.0 - Activité : Traitement d'un fichier (priorité, gros fichier, Crypto mono-instance)</title><defs/><g><g class="title" data-source-line="1"><text fill="#000000" font-family="sans-serif" font-size="14" font-weight="bold" lengthAdjust="spacing" textLength="739.416" x="79.6447" y="32.9951">EasySave 3.0 - Activité : Traitement d'un fichier (priorité, gros fichier, Crypto mono-instance)</text></g><rect fill="none" height="20.9531" style="stroke:none;stroke-width:1;" width="868.7053" x="15" y="50.042"/><ellipse cx="124.5918" cy="85.9951" fill="#222222" rx="10" ry="10" style="stroke:#222222;stroke-width:1;"/><rect fill="#F1F1F1" height="47.9375" rx="12.5" ry="12.5" style="stroke:#181818;stroke-width:0.5;" width="207.1836" x="21" y="115.9951"/><text fill="#000000" font-family="sans-serif" font-size="12" lengthAdjust="spacing" textLength="187.1836" x="31" y="137.1338">Sélectionner le prochain fichier</text><text fill="#000000" font-family="sans-serif" font-size="12" lengthAdjust="spacing" textLength="171.9258" x="31" y="151.1025">(candidat) dans la file du job</text><line style="stroke:#000000;stroke-width:1.5;" x1="15" x2="15" y1="50.042" y2="1579.6201"/><rect fill="#F1F1F1" height="33.9688" rx="12.5" ry="12.5" style="stroke:#181818;stroke-width:0.5;" width="200.2754" x="478.8401" y="183.9326"/><text fill="#000000" font-family="sans-serif" font-size="12" lengthAdjust="spacing" textLength="180.2754" x="488.8401" y="205.0713">Déterminer extension et taille</text><polygon fill="#F1F1F1" points="504.1558,287.9131,653.7998,287.9131,665.7998,299.9131,653.7998,311.9131,504.1558,311.9131,492.1558,299.9131,504.1558,287.9131" style="stroke:#181818;stroke-width:0.5;"/><text fill="#000000" font-family="sans-serif" font-size="11" lengthAdjust="spacing" textLength="149.644" x="504.1558" y="303.7212">Fichier courant prioritaire ?</text><text fill="#000000" font-family="sans-serif" font-size="11" lengthAdjust="spacing" textLength="18.686" x="473.4697" y="297.3188">Oui</text><text fill="#000000" font-family="sans-serif" font-size="11" lengthAdjust="spacing" textLength="21.9302" x="665.7998" y="297.3188">Non</text><rect fill="#F1F1F1" height="33.9688" rx="12.5" ry="12.5" style="stroke:#181818;stroke-width:0.5;" width="142.3086" x="387.4832" y="321.9131"/><text fill="#000000" font-family="sans-serif" font-size="12" lengthAdjust="spacing" textLength="122.3086" x="397.4832" y="343.0518">Autoriser traitement</text><rect fill="#F1F1F1" height="33.9688" rx="12.5" ry="12.5" style="stroke:#181818;stroke-width:0.5;" width="299.0527" x="549.7917" y="321.9131"/><text fill="#000000" font-family="sans-serif" font-size="12" lengthAdjust="spacing" textLength="279.0527" x="559.7917" y="343.0518">Mettre en attente (re-queue) le fichier courant</text><rect fill="#F1F1F1" height="33.9688" rx="12.5" ry="12.5" style="stroke:#181818;stroke-width:0.5;" width="159.4004" x="619.6179" y="379.2842"/><text fill="#000000" font-family="sans-serif" font-size="12" lengthAdjust="spacing" textLength="139.4004" x="629.6179" y="400.4229">Attendre un court délai</text><ellipse cx="699.3181" cy="444.2529" fill="none" rx="11" ry="11" style="stroke:#222222;stroke-width:1;"/><ellipse cx="699.3181" cy="444.2529" fill="#222222" rx="6" ry="6" style="stroke:#222222;stroke-width:1;"/><polygon fill="#F1F1F1" points="475.356,237.9014,682.5996,237.9014,694.5996,250.7061,682.5996,263.5107,475.356,263.5107,463.356,250.7061,475.356,237.9014" style="stroke:#181818;stroke-width:0.5;"/><text fill="#000000" font-family="sans-serif" font-size="11" lengthAdjust="spacing" textLength="18.686" x="582.9778" y="273.7212">Oui</text><text fill="#000000" font-family="sans-serif" font-size="11" lengthAdjust="spacing" textLength="207.2437" x="475.356" y="248.1118">Existe un fichier prioritaire en attente</text><text fill="#000000" font-family="sans-serif" font-size="11" lengthAdjust="spacing" textLength="126.7578" x="475.356" y="260.9165">(sur au moins un job) ?</text><polygon fill="#F1F1F1" points="578.9778,475.2529,590.9778,487.2529,578.9778,499.2529,566.9778,487.2529,578.9778,475.2529" style="stroke:#181818;stroke-width:0.5;"/><rect fill="#F1F1F1" height="33.9688" rx="12.5" ry="12.5" style="stroke:#181818;stroke-width:0.5;" width="264.084" x="446.9358" y="567.6553"/><text fill="#000000" font-family="sans-serif" font-size="12" lengthAdjust="spacing" textLength="244.084" x="456.9358" y="588.7939">Demander verrou global "LargeFileLock"</text><polygon fill="#F1F1F1" points="506.5916,621.624,651.364,621.624,663.364,633.624,651.364,645.624,506.5916,645.624,494.5916,633.624,506.5916,621.624" style="stroke:#181818;stroke-width:0.5;"/><text fill="#000000" font-family="sans-serif" font-size="11" lengthAdjust="spacing" textLength="144.7725" x="506.5916" y="637.4321">LargeFileLock disponible ?</text><text fill="#000000" font-family="sans-serif" font-size="11" lengthAdjust="spacing" textLength="18.686" x="475.9055" y="631.0298">Oui</text><text fill="#000000" font-family="sans-serif" font-size="11" lengthAdjust="spacing" textLength="21.9302" x="663.364" y="631.0298">Non</text><rect fill="#F1F1F1" height="33.9688" rx="12.5" ry="12.5" style="stroke:#181818;stroke-width:0.5;" width="156.9277" x="406.1277" y="655.624"/><text fill="#000000" font-family="sans-serif" font-size="12" lengthAdjust="spacing" textLength="136.9277" x="416.1277" y="676.7627">Acquérir LargeFileLock</text><rect fill="#F1F1F1" height="33.9688" rx="12.5" ry="12.5" style="stroke:#181818;stroke-width:0.5;" width="158.8555" x="593.9363" y="655.624"/><text fill="#000000" font-family="sans-serif" font-size="12" lengthAdjust="spacing" textLength="138.8555" x="603.9363" y="676.7627">Attendre LargeFileLock</text><ellipse cx="673.364" cy="720.5928" fill="none" rx="11" ry="11" style="stroke:#222222;stroke-width:1;"/><ellipse cx="673.364" cy="720.5928" fill="#222222" rx="6" ry="6" style="stroke:#222222;stroke-width:1;"/><polygon fill="#F1F1F1" points="539.3015,519.2529,618.6541,519.2529,630.6541,531.2529,618.6541,543.2529,539.3015,543.2529,527.3015,531.2529,539.3015,519.2529" style="stroke:#181818;stroke-width:0.5;"/><text fill="#000000" font-family="sans-serif" font-size="11" lengthAdjust="spacing" textLength="18.686" x="582.9778" y="553.4634">Oui</text><text fill="#000000" font-family="sans-serif" font-size="11" lengthAdjust="spacing" textLength="79.3525" x="539.3015" y="535.061">Taille &gt; n Ko ?</text><polygon fill="#F1F1F1" points="578.9778,751.5928,590.9778,763.5928,578.9778,775.5928,566.9778,763.5928,578.9778,751.5928" style="stroke:#181818;stroke-width:0.5;"/><rect fill="#F1F1F1" height="47.9375" rx="12.5" ry="12.5" style="stroke:#181818;stroke-width:0.5;" width="291.2188" x="433.3684" y="795.5928"/><text fill="#000000" font-family="sans-serif" font-size="12" lengthAdjust="spacing" textLength="141.5859" x="443.3684" y="816.7314">Mettre à jour State.json</text><text fill="#000000" font-family="sans-serif" font-size="12" lengthAdjust="spacing" textLength="271.2188" x="443.3684" y="830.7002">(CurrentSource/Target, Remaining, Progress)</text><rect fill="#F1F1F1" height="33.9688" rx="12.5" ry="12.5" style="stroke:#181818;stroke-width:0.5;" width="337.0039" x="410.4758" y="863.5303"/><text fill="#000000" font-family="sans-serif" font-size="12" lengthAdjust="spacing" textLength="317.0039" x="420.4758" y="884.6689">Transférer le fichier (copie) et mesurer TransferTime</text><polygon fill="#F1F1F1" points="520.6262,917.499,637.3293,917.499,649.3293,929.499,637.3293,941.499,520.6262,941.499,508.6262,929.499,520.6262,917.499" style="stroke:#181818;stroke-width:0.5;"/><text fill="#000000" font-family="sans-serif" font-size="11" lengthAdjust="spacing" textLength="116.7031" x="520.6262" y="933.3071">Extension à chiffrer ?</text><text fill="#000000" font-family="sans-serif" font-size="11" lengthAdjust="spacing" textLength="18.686" x="489.9402" y="926.9048">Oui</text><text fill="#000000" font-family="sans-serif" font-size="11" lengthAdjust="spacing" textLength="21.9302" x="649.3293" y="926.9048">Non</text><rect fill="#F1F1F1" height="47.9375" rx="12.5" ry="12.5" style="stroke:#181818;stroke-width:0.5;" width="249.2363" x="324.144" y="951.499"/><text fill="#000000" font-family="sans-serif" font-size="12" lengthAdjust="spacing" textLength="229.2363" x="334.144" y="972.6377">Demander verrou global "CryptoLock"</text><text fill="#000000" font-family="sans-serif" font-size="12" lengthAdjust="spacing" textLength="166.2891" x="334.144" y="986.6064">(CryptoSoft mono-instance)</text><polygon fill="#F1F1F1" points="383.1812,1019.4365,514.3433,1019.4365,526.3433,1031.4365,514.3433,1043.4365,383.1812,1043.4365,371.1812,1031.4365,383.1812,1019.4365" style="stroke:#181818;stroke-width:0.5;"/><text fill="#000000" font-family="sans-serif" font-size="11" lengthAdjust="spacing" textLength="131.1621" x="383.1812" y="1035.2446">CryptoLock disponible ?</text><text fill="#000000" font-family="sans-serif" font-size="11" lengthAdjust="spacing" textLength="18.686" x="352.4951" y="1028.8423">Oui</text><text fill="#000000" font-family="sans-serif" font-size="11" lengthAdjust="spacing" textLength="21.9302" x="526.3433" y="1028.8423">Non</text><rect fill="#F1F1F1" height="33.9688" rx="12.5" ry="12.5" style="stroke:#181818;stroke-width:0.5;" width="142.0801" x="276.8613" y="1053.4365"/><text fill="#000000" font-family="sans-serif" font-size="12" lengthAdjust="spacing" textLength="122.0801" x="286.8613" y="1074.5752">Acquérir CryptoLock</text><rect fill="#F1F1F1" height="33.9688" rx="12.5" ry="12.5" style="stroke:#181818;stroke-width:0.5;" width="219.4355" x="238.1836" y="1107.4053"/><text fill="#000000" font-family="sans-serif" font-size="12" lengthAdjust="spacing" textLength="199.4355" x="248.1836" y="1128.5439">Exécuter CryptoSoft sur le fichier</text><rect fill="#F1F1F1" height="33.9688" rx="12.5" ry="12.5" style="stroke:#181818;stroke-width:0.5;" width="142.4727" x="276.665" y="1161.374"/><text fill="#000000" font-family="sans-serif" font-size="12" lengthAdjust="spacing" textLength="122.4727" x="286.665" y="1182.5127">Mesurer CryptoTime</text><rect fill="#F1F1F1" height="33.9688" rx="12.5" ry="12.5" style="stroke:#181818;stroke-width:0.5;" width="144.3945" x="275.7041" y="1215.3428"/><text fill="#000000" font-family="sans-serif" font-size="12" lengthAdjust="spacing" textLength="124.3945" x="285.7041" y="1236.4814">Relâcher CryptoLock</text><rect fill="#F1F1F1" height="33.9688" rx="12.5" ry="12.5" style="stroke:#181818;stroke-width:0.5;" width="144.0078" x="477.6191" y="1053.4365"/><text fill="#000000" font-family="sans-serif" font-size="12" lengthAdjust="spacing" textLength="124.0078" x="487.6191" y="1074.5752">Attendre CryptoLock</text><ellipse cx="549.623" cy="1118.4053" fill="none" rx="11" ry="11" style="stroke:#222222;stroke-width:1;"/><ellipse cx="549.623" cy="1118.4053" fill="#222222" rx="6" ry="6" style="stroke:#222222;stroke-width:1;"/><rect fill="#F1F1F1" height="33.9688" rx="12.5" ry="12.5" style="stroke:#181818;stroke-width:0.5;" width="115.1328" x="651.627" y="951.499"/><text fill="#000000" font-family="sans-serif" font-size="12" lengthAdjust="spacing" textLength="95.1328" x="661.627" y="972.6377">CryptoTime = 0</text><polygon fill="#F1F1F1" points="578.9778,1259.3115,590.9778,1271.3115,578.9778,1283.3115,566.9778,1271.3115,578.9778,1259.3115" style="stroke:#181818;stroke-width:0.5;"/><rect fill="#F1F1F1" height="33.9688" rx="12.5" ry="12.5" style="stroke:#181818;stroke-width:0.5;" width="159.2422" x="499.3567" y="1351.7139"/><text fill="#000000" font-family="sans-serif" font-size="12" lengthAdjust="spacing" textLength="139.2422" x="509.3567" y="1372.8525">Relâcher LargeFileLock</text><polygon fill="#F1F1F1" points="539.3015,1303.3115,618.6541,1303.3115,630.6541,1315.3115,618.6541,1327.3115,539.3015,1327.3115,527.3015,1315.3115,539.3015,1303.3115" style="stroke:#181818;stroke-width:0.5;"/><text fill="#000000" font-family="sans-serif" font-size="11" lengthAdjust="spacing" textLength="18.686" x="582.9778" y="1337.522">Oui</text><text fill="#000000" font-family="sans-serif" font-size="11" lengthAdjust="spacing" textLength="79.3525" x="539.3015" y="1319.1196">Taille &gt; n Ko ?</text><polygon fill="#F1F1F1" points="578.9778,1405.6826,590.9778,1417.6826,578.9778,1429.6826,566.9778,1417.6826,578.9778,1405.6826" style="stroke:#181818;stroke-width:0.5;"/><rect fill="#F1F1F1" height="33.9688" rx="12.5" ry="12.5" style="stroke:#181818;stroke-width:0.5;" width="391.6895" x="383.1331" y="1449.6826"/><text fill="#000000" font-family="sans-serif" font-size="12" lengthAdjust="spacing" textLength="371.6895" x="393.1331" y="1470.8213">Ecrire log (TransferTime + CryptoTime + erreurs éventuelles)</text><rect fill="#F1F1F1" height="33.9688" rx="12.5" ry="12.5" style="stroke:#181818;stroke-width:0.5;" width="302.6445" x="427.6555" y="1503.6514"/><text fill="#000000" font-family="sans-serif" font-size="12" lengthAdjust="spacing" textLength="282.6445" x="437.6555" y="1524.79">Mettre à jour State.json (Remaining / Progress)</text><ellipse cx="578.9778" cy="1568.6201" fill="none" rx="11" ry="11" style="stroke:#222222;stroke-width:1;"/><ellipse cx="578.9778" cy="1568.6201" fill="#222222" rx="6" ry="6" style="stroke:#222222;stroke-width:1;"/><line style="stroke:#000000;stroke-width:1.5;" x1="232.1836" x2="232.1836" y1="50.042" y2="1579.6201"/><line style="stroke:#000000;stroke-width:1.5;" x1="881.8445" x2="881.8445" y1="50.042" y2="1579.6201"/><line style="stroke:#181818;stroke-width:1;" x1="124.5918" x2="124.5918" y1="95.9951" y2="115.9951"/><polygon fill="#181818" points="120.5918,105.9951,124.5918,115.9951,128.5918,105.9951,124.5918,109.9951" style="stroke:#181818;stroke-width:1;"/><line style="stroke:#181818;stroke-width:1;" x1="699.3181" x2="699.3181" y1="355.8818" y2="379.2842"/><polygon fill="#181818" points="695.3181,369.2842,699.3181,379.2842,703.3181,369.2842,699.3181,373.2842" style="stroke:#181818;stroke-width:1;"/><line style="stroke:#181818;stroke-width:1;" x1="699.3181" x2="699.3181" y1="413.2529" y2="433.2529"/><polygon fill="#181818" points="695.3181,423.2529,699.3181,433.2529,703.3181,423.2529,699.3181,427.2529" style="stroke:#181818;stroke-width:1;"/><line style="stroke:#181818;stroke-width:1;" x1="492.1558" x2="458.6375" y1="299.9131" y2="299.9131"/><line style="stroke:#181818;stroke-width:1;" x1="458.6375" x2="458.6375" y1="299.9131" y2="321.9131"/><polygon fill="#181818" points="454.6375,311.9131,458.6375,321.9131,462.6375,311.9131,458.6375,315.9131" style="stroke:#181818;stroke-width:1;"/><line style="stroke:#181818;stroke-width:1;" x1="665.7998" x2="699.3181" y1="299.9131" y2="299.9131"/><line style="stroke:#181818;stroke-width:1;" x1="699.3181" x2="699.3181" y1="299.9131" y2="321.9131"/><polygon fill="#181818" points="695.3181,311.9131,699.3181,321.9131,703.3181,311.9131,699.3181,315.9131" style="stroke:#181818;stroke-width:1;"/><line style="stroke:#181818;stroke-width:1;" x1="458.6375" x2="458.6375" y1="355.8818" y2="460.2529"/><line style="stroke:#181818;stroke-width:1;" x1="458.6375" x2="578.9778" y1="460.2529" y2="460.2529"/><line style="stroke:#181818;stroke-width:1;" x1="578.9778" x2="578.9778" y1="460.2529" y2="475.2529"/><polygon fill="#181818" points="574.9778,465.2529,578.9778,475.2529,582.9778,465.2529,578.9778,469.2529" style="stroke:#181818;stroke-width:1;"/><line style="stroke:#181818;stroke-width:1;" x1="578.9778" x2="578.9778" y1="263.5107" y2="287.9131"/><polygon fill="#181818" points="574.9778,277.9131,578.9778,287.9131,582.9778,277.9131,578.9778,281.9131" style="stroke:#181818;stroke-width:1;"/><line style="stroke:#181818;stroke-width:1;" x1="694.5996" x2="862.8445" y1="250.7061" y2="250.7061"/><polygon fill="#181818" points="858.8445,365.8818,862.8445,375.8818,866.8445,365.8818,862.8445,369.8818" style="stroke:#181818;stroke-width:1;"/><line style="stroke:#181818;stroke-width:1;" x1="862.8445" x2="862.8445" y1="250.7061" y2="487.2529"/><line style="stroke:#181818;stroke-width:1;" x1="862.8445" x2="590.9778" y1="487.2529" y2="487.2529"/><polygon fill="#181818" points="600.9778,483.2529,590.9778,487.2529,600.9778,491.2529,596.9778,487.2529" style="stroke:#181818;stroke-width:1;"/><line style="stroke:#181818;stroke-width:1;" x1="578.9778" x2="578.9778" y1="217.9014" y2="237.9014"/><polygon fill="#181818" points="574.9778,227.9014,578.9778,237.9014,582.9778,227.9014,578.9778,231.9014" style="stroke:#181818;stroke-width:1;"/><line style="stroke:#181818;stroke-width:1;" x1="673.364" x2="673.364" y1="689.5928" y2="709.5928"/><polygon fill="#181818" points="669.364,699.5928,673.364,709.5928,677.364,699.5928,673.364,703.5928" style="stroke:#181818;stroke-width:1;"/><line style="stroke:#181818;stroke-width:1;" x1="494.5916" x2="484.5916" y1="633.624" y2="633.624"/><line style="stroke:#181818;stroke-width:1;" x1="484.5916" x2="484.5916" y1="633.624" y2="655.624"/><polygon fill="#181818" points="480.5916,645.624,484.5916,655.624,488.5916,645.624,484.5916,649.624" style="stroke:#181818;stroke-width:1;"/><line style="stroke:#181818;stroke-width:1;" x1="663.364" x2="673.364" y1="633.624" y2="633.624"/><line style="stroke:#181818;stroke-width:1;" x1="673.364" x2="673.364" y1="633.624" y2="655.624"/><polygon fill="#181818" points="669.364,645.624,673.364,655.624,677.364,645.624,673.364,649.624" style="stroke:#181818;stroke-width:1;"/><line style="stroke:#181818;stroke-width:1;" x1="484.5916" x2="484.5916" y1="689.5928" y2="736.5928"/><line style="stroke:#181818;stroke-width:1;" x1="484.5916" x2="578.9778" y1="736.5928" y2="736.5928"/><line style="stroke:#181818;stroke-width:1;" x1="578.9778" x2="578.9778" y1="736.5928" y2="751.5928"/><polygon fill="#181818" points="574.9778,741.5928,578.9778,751.5928,582.9778,741.5928,578.9778,745.5928" style="stroke:#181818;stroke-width:1;"/><line style="stroke:#181818;stroke-width:1;" x1="578.9778" x2="578.9778" y1="601.624" y2="621.624"/><polygon fill="#181818" points="574.9778,611.624,578.9778,621.624,582.9778,611.624,578.9778,615.624" style="stroke:#181818;stroke-width:1;"/><line style="stroke:#181818;stroke-width:1;" x1="578.9778" x2="578.9778" y1="543.2529" y2="567.6553"/><polygon fill="#181818" points="574.9778,557.6553,578.9778,567.6553,582.9778,557.6553,578.9778,561.6553" style="stroke:#181818;stroke-width:1;"/><line style="stroke:#181818;stroke-width:1;" x1="630.6541" x2="772.7917" y1="531.2529" y2="531.2529"/><polygon fill="#181818" points="768.7917,642.624,772.7917,652.624,776.7917,642.624,772.7917,646.624" style="stroke:#181818;stroke-width:1;"/><line style="stroke:#181818;stroke-width:1;" x1="772.7917" x2="772.7917" y1="531.2529" y2="763.5928"/><line style="stroke:#181818;stroke-width:1;" x1="772.7917" x2="590.9778" y1="763.5928" y2="763.5928"/><polygon fill="#181818" points="600.9778,759.5928,590.9778,763.5928,600.9778,767.5928,596.9778,763.5928" style="stroke:#181818;stroke-width:1;"/><line style="stroke:#181818;stroke-width:1;" x1="578.9778" x2="578.9778" y1="499.2529" y2="519.2529"/><polygon fill="#181818" points="574.9778,509.2529,578.9778,519.2529,582.9778,509.2529,578.9778,513.2529" style="stroke:#181818;stroke-width:1;"/><line style="stroke:#181818;stroke-width:1;" x1="578.9778" x2="578.9778" y1="775.5928" y2="795.5928"/><polygon fill="#181818" points="574.9778,785.5928,578.9778,795.5928,582.9778,785.5928,578.9778,789.5928" style="stroke:#181818;stroke-width:1;"/><line style="stroke:#181818;stroke-width:1;" x1="578.9778" x2="578.9778" y1="843.5303" y2="863.5303"/><polygon fill="#181818" points="574.9778,853.5303,578.9778,863.5303,582.9778,853.5303,578.9778,857.5303" style="stroke:#181818;stroke-width:1;"/><line style="stroke:#181818;stroke-width:1;" x1="347.9014" x2="347.9014" y1="1087.4053" y2="1107.4053"/><polygon fill="#181818" points="343.9014,1097.4053,347.9014,1107.4053,351.9014,1097.4053,347.9014,1101.4053" style="stroke:#181818;stroke-width:1;"/><line style="stroke:#181818;stroke-width:1;" x1="347.9014" x2="347.9014" y1="1141.374" y2="1161.374"/><polygon fill="#181818" points="343.9014,1151.374,347.9014,1161.374,351.9014,1151.374,347.9014,1155.374" style="stroke:#181818;stroke-width:1;"/><line style="stroke:#181818;stroke-width:1;" x1="347.9014" x2="347.9014" y1="1195.3428" y2="1215.3428"/><polygon fill="#181818" points="343.9014,1205.3428,347.9014,1215.3428,351.9014,1205.3428,347.9014,1209.3428" style="stroke:#181818;stroke-width:1;"/><line style="stroke:#181818;stroke-width:1;" x1="549.623" x2="549.623" y1="1087.4053" y2="1107.4053"/><polygon fill="#181818" points="545.623,1097.4053,549.623,1107.4053,553.623,1097.4053,549.623,1101.4053" style="stroke:#181818;stroke-width:1;"/><line style="stroke:#181818;stroke-width:1;" x1="371.1812" x2="347.9014" y1="1031.4365" y2="1031.4365"/><line style="stroke:#181818;stroke-width:1;" x1="347.9014" x2="347.9014" y1="1031.4365" y2="1053.4365"/><polygon fill="#181818" points="343.9014,1043.4365,347.9014,1053.4365,351.9014,1043.4365,347.9014,1047.4365" style="stroke:#181818;stroke-width:1;"/><line style="stroke:#181818;stroke-width:1;" x1="526.3433" x2="549.623" y1="1031.4365" y2="1031.4365"/><line style="stroke:#181818;stroke-width:1;" x1="549.623" x2="549.623" y1="1031.4365" y2="1053.4365"/><polygon fill="#181818" points="545.623,1043.4365,549.623,1053.4365,553.623,1043.4365,549.623,1047.4365" style="stroke:#181818;stroke-width:1;"/><line style="stroke:#181818;stroke-width:1;" x1="347.9014" x2="347.9014" y1="1249.3115" y2="1271.3115"/><line style="stroke:#181818;stroke-width:1;" x1="347.9014" x2="566.9778" y1="1271.3115" y2="1271.3115"/><polygon fill="#181818" points="556.9778,1267.3115,566.9778,1271.3115,556.9778,1275.3115,560.9778,1271.3115" style="stroke:#181818;stroke-width:1;"/><line style="stroke:#181818;stroke-width:1;" x1="448.7622" x2="448.7622" y1="999.4365" y2="1019.4365"/><polygon fill="#181818" points="444.7622,1009.4365,448.7622,1019.4365,452.7622,1009.4365,448.7622,1013.4365" style="stroke:#181818;stroke-width:1;"/><line style="stroke:#181818;stroke-width:1;" x1="508.6262" x2="448.7622" y1="929.499" y2="929.499"/><line style="stroke:#181818;stroke-width:1;" x1="448.7622" x2="448.7622" y1="929.499" y2="951.499"/><polygon fill="#181818" points="444.7622,941.499,448.7622,951.499,452.7622,941.499,448.7622,945.499" style="stroke:#181818;stroke-width:1;"/><line style="stroke:#181818;stroke-width:1;" x1="649.3293" x2="709.1934" y1="929.499" y2="929.499"/><line style="stroke:#181818;stroke-width:1;" x1="709.1934" x2="709.1934" y1="929.499" y2="951.499"/><polygon fill="#181818" points="705.1934,941.499,709.1934,951.499,713.1934,941.499,709.1934,945.499" style="stroke:#181818;stroke-width:1;"/><line style="stroke:#181818;stroke-width:1;" x1="709.1934" x2="709.1934" y1="985.4678" y2="1271.3115"/><line style="stroke:#181818;stroke-width:1;" x1="709.1934" x2="590.9778" y1="1271.3115" y2="1271.3115"/><polygon fill="#181818" points="600.9778,1267.3115,590.9778,1271.3115,600.9778,1275.3115,596.9778,1271.3115" style="stroke:#181818;stroke-width:1;"/><line style="stroke:#181818;stroke-width:1;" x1="578.9778" x2="578.9778" y1="897.499" y2="917.499"/><polygon fill="#181818" points="574.9778,907.499,578.9778,917.499,582.9778,907.499,578.9778,911.499" style="stroke:#181818;stroke-width:1;"/><line style="stroke:#181818;stroke-width:1;" x1="578.9778" x2="578.9778" y1="1327.3115" y2="1351.7139"/><polygon fill="#181818" points="574.9778,1341.7139,578.9778,1351.7139,582.9778,1341.7139,578.9778,1345.7139" style="stroke:#181818;stroke-width:1;"/><line style="stroke:#181818;stroke-width:1;" x1="630.6541" x2="668.5989" y1="1315.3115" y2="1315.3115"/><polygon fill="#181818" points="664.5989,1358.6982,668.5989,1368.6982,672.5989,1358.6982,668.5989,1362.6982" style="stroke:#181818;stroke-width:1;"/><line style="stroke:#181818;stroke-width:1;" x1="668.5989" x2="668.5989" y1="1315.3115" y2="1417.6826"/><line style="stroke:#181818;stroke-width:1;" x1="668.5989" x2="590.9778" y1="1417.6826" y2="1417.6826"/><polygon fill="#181818" points="600.9778,1413.6826,590.9778,1417.6826,600.9778,1421.6826,596.9778,1417.6826" style="stroke:#181818;stroke-width:1;"/><line style="stroke:#181818;stroke-width:1;" x1="578.9778" x2="578.9778" y1="1385.6826" y2="1405.6826"/><polygon fill="#181818" points="574.9778,1395.6826,578.9778,1405.6826,582.9778,1395.6826,578.9778,1399.6826" style="stroke:#181818;stroke-width:1;"/><line style="stroke:#181818;stroke-width:1;" x1="578.9778" x2="578.9778" y1="1283.3115" y2="1303.3115"/><polygon fill="#181818" points="574.9778,1293.3115,578.9778,1303.3115,582.9778,1293.3115,578.9778,1297.3115" style="stroke:#181818;stroke-width:1;"/><line style="stroke:#181818;stroke-width:1;" x1="578.9778" x2="578.9778" y1="1429.6826" y2="1449.6826"/><polygon fill="#181818" points="574.9778,1439.6826,578.9778,1449.6826,582.9778,1439.6826,578.9778,1443.6826" style="stroke:#181818;stroke-width:1;"/><line style="stroke:#181818;stroke-width:1;" x1="578.9778" x2="578.9778" y1="1483.6514" y2="1503.6514"/><polygon fill="#181818" points="574.9778,1493.6514,578.9778,1503.6514,582.9778,1493.6514,578.9778,1497.6514" style="stroke:#181818;stroke-width:1;"/><line style="stroke:#181818;stroke-width:1;" x1="578.9778" x2="578.9778" y1="1537.6201" y2="1557.6201"/><polygon fill="#181818" points="574.9778,1547.6201,578.9778,1557.6201,582.9778,1547.6201,578.9778,1551.6201" style="stroke:#181818;stroke-width:1;"/><line style="stroke:#181818;stroke-width:1;" x1="124.5918" x2="124.5918" y1="163.9326" y2="168.9326"/><line style="stroke:#181818;stroke-width:1;" x1="124.5918" x2="578.9778" y1="168.9326" y2="168.9326"/><line style="stroke:#181818;stroke-width:1;" x1="578.9778" x2="578.9778" y1="168.9326" y2="183.9326"/><polygon fill="#181818" points="574.9778,173.9326,578.9778,183.9326,582.9778,173.9326,578.9778,177.9326" style="stroke:#181818;stroke-width:1;"/><text fill="#000000" font-family="sans-serif" font-size="18" lengthAdjust="spacing" textLength="92.9531" x="77.1152" y="66.75">JobRunner</text><text fill="#000000" font-family="sans-serif" font-size="18" lengthAdjust="spacing" textLength="100.5732" x="506.7274" y="66.75">Application</text><!--SRC=[bLFBRjim4BphAnQvL4Bj941l5jeYI9n3cpuG-zWBJQrifZAfB9T60kHZYjxy7VgnBYtPbfq4I2y2n9rzpEmi6wuGnie_JjGAuSFfEGpXGhDP6MxMC88fASEuHCjGl0iMIgCN1WdIceoZ21h0d9pV1WPmIOyrErWwwuR6UbPMOvOaJr_Sx3POY_IKo2DnCfeqwmgbbukl87FKvFH2cLsNNpRLoXQcK9n1eQo7IabCa4M0EpVBfUn5NLT6grZbAHbTDMj6MffO41yOhPTtG0PMfgemJqm9wVZ1U4ReiUd8A4C8Q46nP39AUny8L10omYGcIDCCFcV02u6bFuB94e1Oyxghf5qW9MBrAnxZ0KONWINi9O5t0kSImieZfD-TxN3VaFbW9aW9X_S10sPHiVAmRTvLZzY2DXHZH7OdKYlJXZsxEhOIOSka_MvacMuaWazWuQjxDlJe2fUo2-crGY8NO5wvcQhWv4RH7AzbAJTE_px9EpqENg4mldRMpAgNnT3teLcJ8JZ8UacF7RDdo9TvRGLi_iZgP9SJLeodTzvPMUvb819D9nBGU3QD5Na0jyBJM6Fd0_X9RaxeVIP66yabM5_AdArNTuUWNMra6UAn9OfTvAb58atDKXpNMMxhHPb44iio0j-iSNjJ6u7Zt9k_YIlvwCgsuk_XRrP-dz9vQFpGh7MGOu9UktWEU-xvrgCjxHRNaju4Rh5g_ke57bT_TQd7Gnnkj9yrsZU3Zt2U_uUFzrCTUMXhcR6cUBMLcqkjtYhXVO-Y_CYAC927PhqI5mMKfj4fhriEqfstuAnlhiZp7m00]--></g></svg>