<svg xmlns="http://www.w3.org/2000/svg" xmlns:xlink="http://www.w3.org/1999/xlink" contentStyleType="text/css" data-diagram-type="ACTIVITY" height="2637px" preserveAspectRatio="none" style="width:682px;height:2637px;background:#FFFFFF;" version="1.1" viewBox="0 0 682 2637" width="682px" zoomAndPan="magnify"><title>EasySave 3.0 - Activité : Cycle de vie d'un job (Play/Pause/Stop + logiciel métier)</title><defs/><g><g class="title" data-source-line="1"><text fill="#000000" font-family="sans-serif" font-size="14" font-weight="bold" lengthAdjust="spacing" textLength="639.4473" x="20" y="32.9951">EasySave 3.0 - Activité : Cycle de vie d'un job (Play/Pause/Stop + logiciel métier)</text></g><rect fill="none" height="20.9531" style="stroke:none;stroke-width:1;" width="444.9624" x="117.2424" y="50.042"/><ellipse cx="191.4202" cy="85.9951" fill="#222222" rx="10" ry="10" style="stroke:#222222;stroke-width:1;"/><rect fill="#F1F1F1" height="33.9688" rx="12.5" ry="12.5" style="stroke:#181818;stroke-width:0.5;" width="136.3555" x="123.2424" y="115.9951"/><text fill="#000000" font-family="sans-serif" font-size="12" lengthAdjust="spacing" textLength="116.3555" x="133.2424" y="137.1338">Sélectionner un job</text><rect fill="#F1F1F1" height="33.9688" rx="12.5" ry="12.5" style="stroke:#181818;stroke-width:0.5;" width="91.4258" x="145.7073" y="169.9639"/><text fill="#000000" font-family="sans-serif" font-size="12" lengthAdjust="spacing" textLength="71.4258" x="155.7073" y="191.1025">Cliquer Play</text><line style="stroke:#000000;stroke-width:1.5;" x1="117.2424" x2="117.2424" y1="50.042" y2="2625.8145"/><rect fill="#F1F1F1" height="33.9688" rx="12.5" ry="12.5" style="stroke:#181818;stroke-width:0.5;" width="254.7383" x="269.5979" y="223.9326"/><text fill="#000000" font-family="sans-serif" font-size="12" lengthAdjust="spacing" textLength="234.7383" x="279.5979" y="245.0713">Créer un CancellationToken pour le job</text><rect fill="#F1F1F1" height="33.9688" rx="12.5" ry="12.5" style="stroke:#181818;stroke-width:0.5;" width="121.4668" x="336.2336" y="277.9014"/><text fill="#000000" font-family="sans-serif" font-size="12" lengthAdjust="spacing" textLength="101.4668" x="346.2336" y="299.04">Etat job = Active</text><rect fill="#F1F1F1" height="33.9688" rx="12.5" ry="12.5" style="stroke:#181818;stroke-width:0.5;" width="161.5859" x="316.1741" y="331.8701"/><text fill="#000000" font-family="sans-serif" font-size="12" lengthAdjust="spacing" textLength="141.5859" x="326.1741" y="353.0088">Mettre à jour State.json</text><rect fill="#F1F1F1" height="33.9688" rx="12.5" ry="12.5" style="stroke:#181818;stroke-width:0.5;" width="220.3848" x="286.7747" y="478.2412"/><text fill="#000000" font-family="sans-serif" font-size="12" lengthAdjust="spacing" textLength="200.3848" x="296.7747" y="499.3799">Annuler le token (Stop immédiat)</text><rect fill="#F1F1F1" height="33.9688" rx="12.5" ry="12.5" style="stroke:#181818;stroke-width:0.5;" width="134.0352" x="329.9495" y="532.21"/><text fill="#000000" font-family="sans-serif" font-size="12" lengthAdjust="spacing" textLength="114.0352" x="339.9495" y="553.3486">Etat job = Stopped</text><rect fill="#F1F1F1" height="33.9688" rx="12.5" ry="12.5" style="stroke:#181818;stroke-width:0.5;" width="162.5703" x="315.6819" y="586.1787"/><text fill="#000000" font-family="sans-serif" font-size="12" lengthAdjust="spacing" textLength="142.5703" x="325.6819" y="607.3174">Ecrire log "Job stopped"</text><rect fill="#F1F1F1" height="33.9688" rx="12.5" ry="12.5" style="stroke:#181818;stroke-width:0.5;" width="161.5859" x="316.1741" y="640.1475"/><text fill="#000000" font-family="sans-serif" font-size="12" lengthAdjust="spacing" textLength="141.5859" x="326.1741" y="661.2861">Mettre à jour State.json</text><ellipse cx="396.967" cy="705.1162" fill="none" rx="11" ry="11" style="stroke:#222222;stroke-width:1;"/><ellipse cx="396.967" cy="705.1162" fill="#222222" rx="6" ry="6" style="stroke:#222222;stroke-width:1;"/><polygon fill="#F1F1F1" points="352.0835,429.8389,441.8506,429.8389,453.8506,441.8389,441.8506,453.8389,352.0835,453.8389,340.0835,441.8389,352.0835,429.8389" style="stroke:#181818;stroke-width:0.5;"/><text fill="#000000" font-family="sans-serif" font-size="11" lengthAdjust="spacing" textLength="18.686" x="400.967" y="464.0493">Oui</text><text fill="#000000" font-family="sans-serif" font-size="11" lengthAdjust="spacing" textLength="89.7671" x="352.0835" y="445.647">Stop demandé ?</text><rect fill="#F1F1F1" height="33.9688" rx="12.5" ry="12.5" style="stroke:#181818;stroke-width:0.5;" width="232.7539" x="280.5901" y="806.5186"/><text fill="#000000" font-family="sans-serif" font-size="12" lengthAdjust="spacing" textLength="212.7539" x="290.5901" y="827.6572">Basculer job en Pause automatique</text><rect fill="#F1F1F1" height="33.9688" rx="12.5" ry="12.5" style="stroke:#181818;stroke-width:0.5;" width="227.0527" x="283.4407" y="860.4873"/><text fill="#000000" font-family="sans-serif" font-size="12" lengthAdjust="spacing" textLength="207.0527" x="293.4407" y="881.626">Ecrire log "Paused (business app)"</text><rect fill="#F1F1F1" height="33.9688" rx="12.5" ry="12.5" style="stroke:#181818;stroke-width:0.5;" width="161.5859" x="316.1741" y="914.4561"/><text fill="#000000" font-family="sans-serif" font-size="12" lengthAdjust="spacing" textLength="141.5859" x="326.1741" y="935.5947">Mettre à jour State.json</text><rect fill="#F1F1F1" height="33.9688" rx="12.5" ry="12.5" style="stroke:#181818;stroke-width:0.5;" width="72.541" x="360.6965" y="1025.5532"/><text fill="#000000" font-family="sans-serif" font-size="12" lengthAdjust="spacing" textLength="52.541" x="370.6965" y="1046.6919">Attendre</text><polygon fill="#F1F1F1" points="337.8044,968.4248,456.1296,968.4248,468.1296,980.4248,456.1296,992.4248,337.8044,992.4248,325.8044,980.4248,337.8044,968.4248" style="stroke:#181818;stroke-width:0.5;"/><text fill="#000000" font-family="sans-serif" font-size="11" lengthAdjust="spacing" textLength="18.686" x="400.967" y="1002.6353">Oui</text><text fill="#000000" font-family="sans-serif" font-size="11" lengthAdjust="spacing" textLength="118.3252" x="337.8044" y="984.2329">Logiciel métier actif ?</text><rect fill="#F1F1F1" height="33.9688" rx="12.5" ry="12.5" style="stroke:#181818;stroke-width:0.5;" width="195.084" x="299.425" y="1101.522"/><text fill="#000000" font-family="sans-serif" font-size="12" lengthAdjust="spacing" textLength="175.084" x="309.425" y="1122.6606">Reprendre automatiquement</text><rect fill="#F1F1F1" height="33.9688" rx="12.5" ry="12.5" style="stroke:#181818;stroke-width:0.5;" width="121.4668" x="336.2336" y="1155.4907"/><text fill="#000000" font-family="sans-serif" font-size="12" lengthAdjust="spacing" textLength="101.4668" x="346.2336" y="1176.6294">Etat job = Active</text><rect fill="#F1F1F1" height="33.9688" rx="12.5" ry="12.5" style="stroke:#181818;stroke-width:0.5;" width="161.5859" x="316.1741" y="1209.4595"/><text fill="#000000" font-family="sans-serif" font-size="12" lengthAdjust="spacing" textLength="141.5859" x="326.1741" y="1230.5981">Mettre à jour State.json</text><polygon fill="#F1F1F1" points="328.8401,758.1162,465.094,758.1162,477.094,770.1162,465.094,782.1162,328.8401,782.1162,316.8401,770.1162,328.8401,758.1162" style="stroke:#181818;stroke-width:0.5;"/><text fill="#000000" font-family="sans-serif" font-size="11" lengthAdjust="spacing" textLength="18.686" x="400.967" y="792.3267">Oui</text><text fill="#000000" font-family="sans-serif" font-size="11" lengthAdjust="spacing" textLength="136.2539" x="328.8401" y="773.9243">Logiciel métier détecté ?</text><polygon fill="#F1F1F1" points="396.967,1263.4282,408.967,1275.4282,396.967,1287.4282,384.967,1275.4282,396.967,1263.4282" style="stroke:#181818;stroke-width:0.5;"/><rect fill="#F1F1F1" height="33.9688" rx="12.5" ry="12.5" style="stroke:#181818;stroke-width:0.5;" width="227.457" x="283.2385" y="1355.8306"/><text fill="#000000" font-family="sans-serif" font-size="12" lengthAdjust="spacing" textLength="207.457" x="293.2385" y="1376.9692">Marquer "PauseRequested" = true</text><polygon fill="#F1F1F1" points="344.7815,1307.4282,449.1526,1307.4282,461.1526,1319.4282,449.1526,1331.4282,344.7815,1331.4282,332.7815,1319.4282,344.7815,1307.4282" style="stroke:#181818;stroke-width:0.5;"/><text fill="#000000" font-family="sans-serif" font-size="11" lengthAdjust="spacing" textLength="18.686" x="400.967" y="1341.6387">Oui</text><text fill="#000000" font-family="sans-serif" font-size="11" lengthAdjust="spacing" textLength="104.3711" x="344.7815" y="1323.2363">Pause demandée ?</text><polygon fill="#F1F1F1" points="396.967,1409.7993,408.967,1421.7993,396.967,1433.7993,384.967,1421.7993,396.967,1409.7993" style="stroke:#181818;stroke-width:0.5;"/><rect fill="#F1F1F1" height="47.9375" rx="12.5" ry="12.5" style="stroke:#181818;stroke-width:0.5;" width="171.0781" x="311.428" y="1453.7993"/><text fill="#000000" font-family="sans-serif" font-size="12" lengthAdjust="spacing" textLength="151.0781" x="321.428" y="1474.938">Traiter le fichier en cours</text><text fill="#000000" font-family="sans-serif" font-size="12" lengthAdjust="spacing" textLength="146.3555" x="321.428" y="1488.9067">(jusqu'à fin du transfert)</text><rect fill="#F1F1F1" height="33.9688" rx="12.5" ry="12.5" style="stroke:#181818;stroke-width:0.5;" width="127.584" x="333.175" y="1570.1392"/><text fill="#000000" font-family="sans-serif" font-size="12" lengthAdjust="spacing" textLength="107.584" x="343.175" y="1591.2778">Etat job = Paused</text><rect fill="#F1F1F1" height="33.9688" rx="12.5" ry="12.5" style="stroke:#181818;stroke-width:0.5;" width="174.5234" x="309.7053" y="1624.1079"/><text fill="#000000" font-family="sans-serif" font-size="12" lengthAdjust="spacing" textLength="154.5234" x="319.7053" y="1645.2466">Ecrire log "Paused (user)"</text><rect fill="#F1F1F1" height="33.9688" rx="12.5" ry="12.5" style="stroke:#181818;stroke-width:0.5;" width="161.5859" x="316.1741" y="1678.0767"/><text fill="#000000" font-family="sans-serif" font-size="12" lengthAdjust="spacing" textLength="141.5859" x="326.1741" y="1699.2153">Mettre à jour State.json</text><rect fill="#F1F1F1" height="33.9688" rx="12.5" ry="12.5" style="stroke:#181818;stroke-width:0.5;" width="119.0059" x="337.4641" y="1836.1582"/><text fill="#000000" font-family="sans-serif" font-size="12" lengthAdjust="spacing" textLength="99.0059" x="347.4641" y="1857.2969">Annuler le token</text><rect fill="#F1F1F1" height="33.9688" rx="12.5" ry="12.5" style="stroke:#181818;stroke-width:0.5;" width="134.0352" x="329.9495" y="1890.127"/><text fill="#000000" font-family="sans-serif" font-size="12" lengthAdjust="spacing" textLength="114.0352" x="339.9495" y="1911.2656">Etat job = Stopped</text><rect fill="#F1F1F1" height="33.9688" rx="12.5" ry="12.5" style="stroke:#181818;stroke-width:0.5;" width="162.5703" x="315.6819" y="1944.0957"/><text fill="#000000" font-family="sans-serif" font-size="12" lengthAdjust="spacing" textLength="142.5703" x="325.6819" y="1965.2344">Ecrire log "Job stopped"</text><rect fill="#F1F1F1" height="33.9688" rx="12.5" ry="12.5" style="stroke:#181818;stroke-width:0.5;" width="161.5859" x="316.1741" y="1998.0645"/><text fill="#000000" font-family="sans-serif" font-size="12" lengthAdjust="spacing" textLength="141.5859" x="326.1741" y="2019.2031">Mettre à jour State.json</text><ellipse cx="396.967" cy="2063.0332" fill="none" rx="11" ry="11" style="stroke:#222222;stroke-width:1;"/><ellipse cx="396.967" cy="2063.0332" fill="#222222" rx="6" ry="6" style="stroke:#222222;stroke-width:1;"/><polygon fill="#F1F1F1" points="352.0835,1787.7559,441.8506,1787.7559,453.8506,1799.7559,441.8506,1811.7559,352.0835,1811.7559,340.0835,1799.7559,352.0835,1787.7559" style="stroke:#181818;stroke-width:0.5;"/><text fill="#000000" font-family="sans-serif" font-size="11" lengthAdjust="spacing" textLength="18.686" x="400.967" y="1821.9663">Oui</text><text fill="#000000" font-family="sans-serif" font-size="11" lengthAdjust="spacing" textLength="89.7671" x="352.0835" y="1803.564">Stop demandé ?</text><rect fill="#F1F1F1" height="33.9688" rx="12.5" ry="12.5" style="stroke:#181818;stroke-width:0.5;" width="72.541" x="360.6965" y="2116.0332"/><text fill="#000000" font-family="sans-serif" font-size="12" lengthAdjust="spacing" textLength="52.541" x="370.6965" y="2137.1719">Attendre</text><polygon fill="#F1F1F1" points="341.0325,1732.0454,452.9016,1732.0454,464.9016,1744.0454,452.9016,1756.0454,341.0325,1756.0454,329.0325,1744.0454,341.0325,1732.0454" style="stroke:#181818;stroke-width:0.5;"/><text fill="#000000" font-family="sans-serif" font-size="11" lengthAdjust="spacing" textLength="18.686" x="400.967" y="1766.2559">Oui</text><text fill="#000000" font-family="sans-serif" font-size="11" lengthAdjust="spacing" textLength="111.8691" x="341.0325" y="1747.8535">Play non demandé ?</text><rect fill="#F1F1F1" height="33.9688" rx="12.5" ry="12.5" style="stroke:#181818;stroke-width:0.5;" width="166.3438" x="313.7952" y="2192.002"/><text fill="#000000" font-family="sans-serif" font-size="12" lengthAdjust="spacing" textLength="146.3438" x="323.7952" y="2213.1406">PauseRequested = false</text><rect fill="#F1F1F1" height="33.9688" rx="12.5" ry="12.5" style="stroke:#181818;stroke-width:0.5;" width="121.4668" x="336.2336" y="2245.9707"/><text fill="#000000" font-family="sans-serif" font-size="12" lengthAdjust="spacing" textLength="101.4668" x="346.2336" y="2267.1094">Etat job = Active</text><rect fill="#F1F1F1" height="33.9688" rx="12.5" ry="12.5" style="stroke:#181818;stroke-width:0.5;" width="161.5859" x="316.1741" y="2299.9395"/><text fill="#000000" font-family="sans-serif" font-size="12" lengthAdjust="spacing" textLength="141.5859" x="326.1741" y="2321.0781">Mettre à jour State.json</text><polygon fill="#F1F1F1" points="327.022,1521.7368,466.9121,1521.7368,478.9121,1533.7368,466.9121,1545.7368,327.022,1545.7368,315.022,1533.7368,327.022,1521.7368" style="stroke:#181818;stroke-width:0.5;"/><text fill="#000000" font-family="sans-serif" font-size="11" lengthAdjust="spacing" textLength="18.686" x="400.967" y="1555.9473">Oui</text><text fill="#000000" font-family="sans-serif" font-size="11" lengthAdjust="spacing" textLength="139.8901" x="327.022" y="1537.5449">PauseRequested = true ?</text><polygon fill="#F1F1F1" points="396.967,2353.9082,408.967,2365.9082,396.967,2377.9082,384.967,2365.9082,396.967,2353.9082" style="stroke:#181818;stroke-width:0.5;"/><polygon fill="#F1F1F1" points="396.967,385.8389,408.967,397.8389,396.967,409.8389,384.967,397.8389,396.967,385.8389" style="stroke:#181818;stroke-width:0.5;"/><polygon fill="#F1F1F1" points="346.7661,2397.9082,447.168,2397.9082,459.168,2409.9082,447.168,2421.9082,346.7661,2421.9082,334.7661,2409.9082,346.7661,2397.9082" style="stroke:#181818;stroke-width:0.5;"/><text fill="#000000" font-family="sans-serif" font-size="11" lengthAdjust="spacing" textLength="100.4019" x="346.7661" y="2413.7163">Fichiers restants ?</text><text fill="#000000" font-family="sans-serif" font-size="11" lengthAdjust="spacing" textLength="18.686" x="459.168" y="2407.314">Oui</text><rect fill="#F1F1F1" height="33.9688" rx="12.5" ry="12.5" style="stroke:#181818;stroke-width:0.5;" width="149.5859" x="322.1741" y="2441.9082"/><text fill="#000000" font-family="sans-serif" font-size="12" lengthAdjust="spacing" textLength="129.5859" x="332.1741" y="2463.0469">Etat job = Completed</text><rect fill="#F1F1F1" height="33.9688" rx="12.5" ry="12.5" style="stroke:#181818;stroke-width:0.5;" width="177.7051" x="308.1145" y="2495.877"/><text fill="#000000" font-family="sans-serif" font-size="12" lengthAdjust="spacing" textLength="157.7051" x="318.1145" y="2517.0156">Ecrire log "Job completed"</text><rect fill="#F1F1F1" height="33.9688" rx="12.5" ry="12.5" style="stroke:#181818;stroke-width:0.5;" width="161.5859" x="316.1741" y="2549.8457"/><text fill="#000000" font-family="sans-serif" font-size="12" lengthAdjust="spacing" textLength="141.5859" x="326.1741" y="2570.9844">Mettre à jour State.json</text><ellipse cx="396.967" cy="2614.8145" fill="none" rx="11" ry="11" style="stroke:#222222;stroke-width:1;"/><ellipse cx="396.967" cy="2614.8145" fill="#222222" rx="6" ry="6" style="stroke:#222222;stroke-width:1;"/><line style="stroke:#000000;stroke-width:1.5;" x1="263.5979" x2="263.5979" y1="50.042" y2="2625.8145"/><line style="stroke:#000000;stroke-width:1.5;" x1="560.344" x2="560.344" y1="50.042" y2="2625.8145"/><line style="stroke:#181818;stroke-width:1;" x1="191.4202" x2="191.4202" y1="95.9951" y2="115.9951"/><polygon fill="#181818" points="187.4202,105.9951,191.4202,115.9951,195.4202,105.9951,191.4202,109.9951" style="stroke:#181818;stroke-width:1;"/><line style="stroke:#181818;stroke-width:1;" x1="191.4202" x2="191.4202" y1="149.9639" y2="169.9639"/><polygon fill="#181818" points="187.4202,159.9639,191.4202,169.9639,195.4202,159.9639,191.4202,163.9639" style="stroke:#181818;stroke-width:1;"/><line style="stroke:#181818;stroke-width:1;" x1="396.967" x2="396.967" y1="257.9014" y2="277.9014"/><polygon fill="#181818" points="392.967,267.9014,396.967,277.9014,400.967,267.9014,396.967,271.9014" style="stroke:#181818;stroke-width:1;"/><line style="stroke:#181818;stroke-width:1;" x1="396.967" x2="396.967" y1="311.8701" y2="331.8701"/><polygon fill="#181818" points="392.967,321.8701,396.967,331.8701,400.967,321.8701,396.967,325.8701" style="stroke:#181818;stroke-width:1;"/><line style="stroke:#181818;stroke-width:1;" x1="396.967" x2="396.967" y1="512.21" y2="532.21"/><polygon fill="#181818" points="392.967,522.21,396.967,532.21,400.967,522.21,396.967,526.21" style="stroke:#181818;stroke-width:1;"/><line style="stroke:#181818;stroke-width:1;" x1="396.967" x2="396.967" y1="566.1787" y2="586.1787"/><polygon fill="#181818" points="392.967,576.1787,396.967,586.1787,400.967,576.1787,396.967,580.1787" style="stroke:#181818;stroke-width:1;"/><line style="stroke:#181818;stroke-width:1;" x1="396.967" x2="396.967" y1="620.1475" y2="640.1475"/><polygon fill="#181818" points="392.967,630.1475,396.967,640.1475,400.967,630.1475,396.967,634.1475" style="stroke:#181818;stroke-width:1;"/><line style="stroke:#181818;stroke-width:1;" x1="396.967" x2="396.967" y1="674.1162" y2="694.1162"/><polygon fill="#181818" points="392.967,684.1162,396.967,694.1162,400.967,684.1162,396.967,688.1162" style="stroke:#181818;stroke-width:1;"/><line style="stroke:#181818;stroke-width:1;" x1="396.967" x2="396.967" y1="453.8389" y2="478.2412"/><polygon fill="#181818" points="392.967,468.2412,396.967,478.2412,400.967,468.2412,396.967,472.2412" style="stroke:#181818;stroke-width:1;"/><line style="stroke:#181818;stroke-width:1;" x1="453.8506" x2="517.1594" y1="441.8389" y2="441.8389"/><polygon fill="#181818" points="513.1594,584.1787,517.1594,594.1787,521.1594,584.1787,517.1594,588.1787" style="stroke:#181818;stroke-width:1;"/><line style="stroke:#181818;stroke-width:1;" x1="517.1594" x2="517.1594" y1="441.8389" y2="738.1162"/><line style="stroke:#181818;stroke-width:1;" x1="517.1594" x2="396.967" y1="738.1162" y2="738.1162"/><line style="stroke:#181818;stroke-width:1;" x1="396.967" x2="396.967" y1="738.1162" y2="758.1162"/><polygon fill="#181818" points="392.967,748.1162,396.967,758.1162,400.967,748.1162,396.967,752.1162" style="stroke:#181818;stroke-width:1;"/><line style="stroke:#181818;stroke-width:1;" x1="396.967" x2="396.967" y1="840.4873" y2="860.4873"/><polygon fill="#181818" points="392.967,850.4873,396.967,860.4873,400.967,850.4873,396.967,854.4873" style="stroke:#181818;stroke-width:1;"/><line style="stroke:#181818;stroke-width:1;" x1="396.967" x2="396.967" y1="894.4561" y2="914.4561"/><polygon fill="#181818" points="392.967,904.4561,396.967,914.4561,400.967,904.4561,396.967,908.4561" style="stroke:#181818;stroke-width:1;"/><line style="stroke:#181818;stroke-width:1;" x1="396.967" x2="396.967" y1="992.4248" y2="1025.5532"/><polygon fill="#181818" points="392.967,1015.5532,396.967,1025.5532,400.967,1015.5532,396.967,1019.5532" style="stroke:#181818;stroke-width:1;"/><line style="stroke:#181818;stroke-width:1;" x1="396.967" x2="396.967" y1="1059.522" y2="1069.522"/><line style="stroke:#181818;stroke-width:1;" x1="396.967" x2="480.1296" y1="1069.522" y2="1069.522"/><polygon fill="#181818" points="476.1296,1034.1353,480.1296,1024.1353,484.1296,1034.1353,480.1296,1030.1353" style="stroke:#181818;stroke-width:1;"/><line style="stroke:#181818;stroke-width:1;" x1="480.1296" x2="480.1296" y1="980.4248" y2="1069.522"/><line style="stroke:#181818;stroke-width:1;" x1="480.1296" x2="468.1296" y1="980.4248" y2="980.4248"/><polygon fill="#181818" points="478.1296,976.4248,468.1296,980.4248,478.1296,984.4248,474.1296,980.4248" style="stroke:#181818;stroke-width:1;"/><line style="stroke:#181818;stroke-width:1;" x1="325.8044" x2="313.8044" y1="980.4248" y2="980.4248"/><polygon fill="#181818" points="309.8044,1020.1353,313.8044,1030.1353,317.8044,1020.1353,313.8044,1024.1353" style="stroke:#181818;stroke-width:1;"/><line style="stroke:#181818;stroke-width:1;" x1="313.8044" x2="313.8044" y1="980.4248" y2="1081.522"/><line style="stroke:#181818;stroke-width:1;" x1="313.8044" x2="396.967" y1="1081.522" y2="1081.522"/><line style="stroke:#181818;stroke-width:1;" x1="396.967" x2="396.967" y1="1081.522" y2="1101.522"/><polygon fill="#181818" points="392.967,1091.522,396.967,1101.522,400.967,1091.522,396.967,1095.522" style="stroke:#181818;stroke-width:1;"/><line style="stroke:#181818;stroke-width:1;" x1="396.967" x2="396.967" y1="948.4248" y2="968.4248"/><polygon fill="#181818" points="392.967,958.4248,396.967,968.4248,400.967,958.4248,396.967,962.4248" style="stroke:#181818;stroke-width:1;"/><line style="stroke:#181818;stroke-width:1;" x1="396.967" x2="396.967" y1="1135.4907" y2="1155.4907"/><polygon fill="#181818" points="392.967,1145.4907,396.967,1155.4907,400.967,1145.4907,396.967,1149.4907" style="stroke:#181818;stroke-width:1;"/><line style="stroke:#181818;stroke-width:1;" x1="396.967" x2="396.967" y1="1189.4595" y2="1209.4595"/><polygon fill="#181818" points="392.967,1199.4595,396.967,1209.4595,400.967,1199.4595,396.967,1203.4595" style="stroke:#181818;stroke-width:1;"/><line style="stroke:#181818;stroke-width:1;" x1="396.967" x2="396.967" y1="782.1162" y2="806.5186"/><polygon fill="#181818" points="392.967,796.5186,396.967,806.5186,400.967,796.5186,396.967,800.5186" style="stroke:#181818;stroke-width:1;"/><line style="stroke:#181818;stroke-width:1;" x1="477.094" x2="523.344" y1="770.1162" y2="770.1162"/><polygon fill="#181818" points="519.344,1014.1353,523.344,1024.1353,527.344,1014.1353,523.344,1018.1353" style="stroke:#181818;stroke-width:1;"/><line style="stroke:#181818;stroke-width:1;" x1="523.344" x2="523.344" y1="770.1162" y2="1275.4282"/><line style="stroke:#181818;stroke-width:1;" x1="523.344" x2="408.967" y1="1275.4282" y2="1275.4282"/><polygon fill="#181818" points="418.967,1271.4282,408.967,1275.4282,418.967,1279.4282,414.967,1275.4282" style="stroke:#181818;stroke-width:1;"/><line style="stroke:#181818;stroke-width:1;" x1="396.967" x2="396.967" y1="1243.4282" y2="1263.4282"/><polygon fill="#181818" points="392.967,1253.4282,396.967,1263.4282,400.967,1253.4282,396.967,1257.4282" style="stroke:#181818;stroke-width:1;"/><line style="stroke:#181818;stroke-width:1;" x1="396.967" x2="396.967" y1="1331.4282" y2="1355.8306"/><polygon fill="#181818" points="392.967,1345.8306,396.967,1355.8306,400.967,1345.8306,396.967,1349.8306" style="stroke:#181818;stroke-width:1;"/><line style="stroke:#181818;stroke-width:1;" x1="461.1526" x2="520.6956" y1="1319.4282" y2="1319.4282"/><polygon fill="#181818" points="516.6956,1362.8149,520.6956,1372.8149,524.6956,1362.8149,520.6956,1366.8149" style="stroke:#181818;stroke-width:1;"/><line style="stroke:#181818;stroke-width:1;" x1="520.6956" x2="520.6956" y1="1319.4282" y2="1421.7993"/><line style="stroke:#181818;stroke-width:1;" x1="520.6956" x2="408.967" y1="1421.7993" y2="1421.7993"/><polygon fill="#181818" points="418.967,1417.7993,408.967,1421.7993,418.967,1425.7993,414.967,1421.7993" style="stroke:#181818;stroke-width:1;"/><line style="stroke:#181818;stroke-width:1;" x1="396.967" x2="396.967" y1="1389.7993" y2="1409.7993"/><polygon fill="#181818" points="392.967,1399.7993,396.967,1409.7993,400.967,1399.7993,396.967,1403.7993" style="stroke:#181818;stroke-width:1;"/><line style="stroke:#181818;stroke-width:1;" x1="396.967" x2="396.967" y1="1287.4282" y2="1307.4282"/><polygon fill="#181818" points="392.967,1297.4282,396.967,1307.4282,400.967,1297.4282,396.967,1301.4282" style="stroke:#181818;stroke-width:1;"/><line style="stroke:#181818;stroke-width:1;" x1="396.967" x2="396.967" y1="1433.7993" y2="1453.7993"/><polygon fill="#181818" points="392.967,1443.7993,396.967,1453.7993,400.967,1443.7993,396.967,1447.7993" style="stroke:#181818;stroke-width:1;"/><line style="stroke:#181818;stroke-width:1;" x1="396.967" x2="396.967" y1="1604.1079" y2="1624.1079"/><polygon fill="#181818" points="392.967,1614.1079,396.967,1624.1079,400.967,1614.1079,396.967,1618.1079" style="stroke:#181818;stroke-width:1;"/><line style="stroke:#181818;stroke-width:1;" x1="396.967" x2="396.967" y1="1658.0767" y2="1678.0767"/><polygon fill="#181818" points="392.967,1668.0767,396.967,1678.0767,400.967,1668.0767,396.967,1672.0767" style="stroke:#181818;stroke-width:1;"/><line style="stroke:#181818;stroke-width:1;" x1="396.967" x2="396.967" y1="1870.127" y2="1890.127"/><polygon fill="#181818" points="392.967,1880.127,396.967,1890.127,400.967,1880.127,396.967,1884.127" style="stroke:#181818;stroke-width:1;"/><line style="stroke:#181818;stroke-width:1;" x1="396.967" x2="396.967" y1="1924.0957" y2="1944.0957"/><polygon fill="#181818" points="392.967,1934.0957,396.967,1944.0957,400.967,1934.0957,396.967,1938.0957" style="stroke:#181818;stroke-width:1;"/><line style="stroke:#181818;stroke-width:1;" x1="396.967" x2="396.967" y1="1978.0645" y2="1998.0645"/><polygon fill="#181818" points="392.967,1988.0645,396.967,1998.0645,400.967,1988.0645,396.967,1992.0645" style="stroke:#181818;stroke-width:1;"/><line style="stroke:#181818;stroke-width:1;" x1="396.967" x2="396.967" y1="2032.0332" y2="2052.0332"/><polygon fill="#181818" points="392.967,2042.0332,396.967,2052.0332,400.967,2042.0332,396.967,2046.0332" style="stroke:#181818;stroke-width:1;"/><line style="stroke:#181818;stroke-width:1;" x1="396.967" x2="396.967" y1="1811.7559" y2="1836.1582"/><polygon fill="#181818" points="392.967,1826.1582,396.967,1836.1582,400.967,1826.1582,396.967,1830.1582" style="stroke:#181818;stroke-width:1;"/><line style="stroke:#181818;stroke-width:1;" x1="453.8506" x2="488.2522" y1="1799.7559" y2="1799.7559"/><polygon fill="#181818" points="484.2522,1942.0957,488.2522,1952.0957,492.2522,1942.0957,488.2522,1946.0957" style="stroke:#181818;stroke-width:1;"/><line style="stroke:#181818;stroke-width:1;" x1="488.2522" x2="488.2522" y1="1799.7559" y2="2096.0332"/><line style="stroke:#181818;stroke-width:1;" x1="488.2522" x2="396.967" y1="2096.0332" y2="2096.0332"/><line style="stroke:#181818;stroke-width:1;" x1="396.967" x2="396.967" y1="2096.0332" y2="2116.0332"/><polygon fill="#181818" points="392.967,2106.0332,396.967,2116.0332,400.967,2106.0332,396.967,2110.0332" style="stroke:#181818;stroke-width:1;"/><line style="stroke:#181818;stroke-width:1;" x1="396.967" x2="396.967" y1="1756.0454" y2="1787.7559"/><polygon fill="#181818" points="392.967,1777.7559,396.967,1787.7559,400.967,1777.7559,396.967,1781.7559" style="stroke:#181818;stroke-width:1;"/><line style="stroke:#181818;stroke-width:1;" x1="396.967" x2="396.967" y1="2150.002" y2="2160.002"/><line style="stroke:#181818;stroke-width:1;" x1="396.967" x2="512.2522" y1="2160.002" y2="2160.002"/><polygon fill="#181818" points="508.2522,1972.1777,512.2522,1962.1777,516.2522,1972.1777,512.2522,1968.1777" style="stroke:#181818;stroke-width:1;"/><line style="stroke:#181818;stroke-width:1;" x1="512.2522" x2="512.2522" y1="1744.0454" y2="2160.002"/><line style="stroke:#181818;stroke-width:1;" x1="512.2522" x2="464.9016" y1="1744.0454" y2="1744.0454"/><polygon fill="#181818" points="474.9016,1740.0454,464.9016,1744.0454,474.9016,1748.0454,470.9016,1744.0454" style="stroke:#181818;stroke-width:1;"/><line style="stroke:#181818;stroke-width:1;" x1="329.0325" x2="293.6819" y1="1744.0454" y2="1744.0454"/><polygon fill="#181818" points="289.6819,1958.1777,293.6819,1968.1777,297.6819,1958.1777,293.6819,1962.1777" style="stroke:#181818;stroke-width:1;"/><line style="stroke:#181818;stroke-width:1;" x1="293.6819" x2="293.6819" y1="1744.0454" y2="2172.002"/><line style="stroke:#181818;stroke-width:1;" x1="293.6819" x2="396.967" y1="2172.002" y2="2172.002"/><line style="stroke:#181818;stroke-width:1;" x1="396.967" x2="396.967" y1="2172.002" y2="2192.002"/><polygon fill="#181818" points="392.967,2182.002,396.967,2192.002,400.967,2182.002,396.967,2186.002" style="stroke:#181818;stroke-width:1;"/><line style="stroke:#181818;stroke-width:1;" x1="396.967" x2="396.967" y1="1712.0454" y2="1732.0454"/><polygon fill="#181818" points="392.967,1722.0454,396.967,1732.0454,400.967,1722.0454,396.967,1726.0454" style="stroke:#181818;stroke-width:1;"/><line style="stroke:#181818;stroke-width:1;" x1="396.967" x2="396.967" y1="2225.9707" y2="2245.9707"/><polygon fill="#181818" points="392.967,2235.9707,396.967,2245.9707,400.967,2235.9707,396.967,2239.9707" style="stroke:#181818;stroke-width:1;"/><line style="stroke:#181818;stroke-width:1;" x1="396.967" x2="396.967" y1="2279.9395" y2="2299.9395"/><polygon fill="#181818" points="392.967,2289.9395,396.967,2299.9395,400.967,2289.9395,396.967,2293.9395" style="stroke:#181818;stroke-width:1;"/><line style="stroke:#181818;stroke-width:1;" x1="396.967" x2="396.967" y1="1545.7368" y2="1570.1392"/><polygon fill="#181818" points="392.967,1560.1392,396.967,1570.1392,400.967,1560.1392,396.967,1564.1392" style="stroke:#181818;stroke-width:1;"/><line style="stroke:#181818;stroke-width:1;" x1="478.9121" x2="522.2522" y1="1533.7368" y2="1533.7368"/><polygon fill="#181818" points="518.2522,1952.1777,522.2522,1962.1777,526.2522,1952.1777,522.2522,1956.1777" style="stroke:#181818;stroke-width:1;"/><line style="stroke:#181818;stroke-width:1;" x1="522.2522" x2="522.2522" y1="1533.7368" y2="2365.9082"/><line style="stroke:#181818;stroke-width:1;" x1="522.2522" x2="408.967" y1="2365.9082" y2="2365.9082"/><polygon fill="#181818" points="418.967,2361.9082,408.967,2365.9082,418.967,2369.9082,414.967,2365.9082" style="stroke:#181818;stroke-width:1;"/><line style="stroke:#181818;stroke-width:1;" x1="396.967" x2="396.967" y1="2333.9082" y2="2353.9082"/><polygon fill="#181818" points="392.967,2343.9082,396.967,2353.9082,400.967,2343.9082,396.967,2347.9082" style="stroke:#181818;stroke-width:1;"/><line style="stroke:#181818;stroke-width:1;" x1="396.967" x2="396.967" y1="1501.7368" y2="1521.7368"/><polygon fill="#181818" points="392.967,1511.7368,396.967,1521.7368,400.967,1511.7368,396.967,1515.7368" style="stroke:#181818;stroke-width:1;"/><line style="stroke:#181818;stroke-width:1;" x1="396.967" x2="396.967" y1="409.8389" y2="429.8389"/><polygon fill="#181818" points="392.967,419.8389,396.967,429.8389,400.967,419.8389,396.967,423.8389" style="stroke:#181818;stroke-width:1;"/><line style="stroke:#181818;stroke-width:1;" x1="459.168" x2="541.344" y1="2409.9082" y2="2409.9082"/><polygon fill="#181818" points="537.344,1419.8813,541.344,1409.8813,545.344,1419.8813,541.344,1415.8813" style="stroke:#181818;stroke-width:1;"/><line style="stroke:#181818;stroke-width:1;" x1="541.344" x2="541.344" y1="397.8389" y2="2409.9082"/><line style="stroke:#181818;stroke-width:1;" x1="541.344" x2="408.967" y1="397.8389" y2="397.8389"/><polygon fill="#181818" points="418.967,393.8389,408.967,397.8389,418.967,401.8389,414.967,397.8389" style="stroke:#181818;stroke-width:1;"/><line style="stroke:#181818;stroke-width:1;" x1="396.967" x2="396.967" y1="2377.9082" y2="2397.9082"/><polygon fill="#181818" points="392.967,2387.9082,396.967,2397.9082,400.967,2387.9082,396.967,2391.9082" style="stroke:#181818;stroke-width:1;"/><line style="stroke:#181818;stroke-width:1;" x1="396.967" x2="396.967" y1="365.8389" y2="385.8389"/><polygon fill="#181818" points="392.967,375.8389,396.967,385.8389,400.967,375.8389,396.967,379.8389" style="stroke:#181818;stroke-width:1;"/><line style="stroke:#181818;stroke-width:1;" x1="396.967" x2="396.967" y1="2421.9082" y2="2441.9082"/><polygon fill="#181818" points="392.967,2431.9082,396.967,2441.9082,400.967,2431.9082,396.967,2435.9082" style="stroke:#181818;stroke-width:1;"/><line style="stroke:#181818;stroke-width:1;" x1="396.967" x2="396.967" y1="2475.877" y2="2495.877"/><polygon fill="#181818" points="392.967,2485.877,396.967,2495.877,400.967,2485.877,396.967,2489.877" style="stroke:#181818;stroke-width:1;"/><line style="stroke:#181818;stroke-width:1;" x1="396.967" x2="396.967" y1="2529.8457" y2="2549.8457"/><polygon fill="#181818" points="392.967,2539.8457,396.967,2549.8457,400.967,2539.8457,396.967,2543.8457" style="stroke:#181818;stroke-width:1;"/><line style="stroke:#181818;stroke-width:1;" x1="396.967" x2="396.967" y1="2583.8145" y2="2603.8145"/><polygon fill="#181818" points="392.967,2593.8145,396.967,2603.8145,400.967,2593.8145,396.967,2597.8145" style="stroke:#181818;stroke-width:1;"/><line style="stroke:#181818;stroke-width:1;" x1="191.4202" x2="191.4202" y1="203.9326" y2="208.9326"/><line style="stroke:#181818;stroke-width:1;" x1="191.4202" x2="396.967" y1="208.9326" y2="208.9326"/><line style="stroke:#181818;stroke-width:1;" x1="396.967" x2="396.967" y1="208.9326" y2="223.9326"/><polygon fill="#181818" points="392.967,213.9326,396.967,223.9326,400.967,213.9326,396.967,217.9326" style="stroke:#181818;stroke-width:1;"/><text fill="#000000" font-family="sans-serif" font-size="18" lengthAdjust="spacing" textLength="92.584" x="144.1282" y="66.75">Utilisateur</text><text fill="#000000" font-family="sans-serif" font-size="18" lengthAdjust="spacing" textLength="100.5732" x="361.6843" y="66.75">Application</text><!--SRC=[hLJ1Rjf04BtxAqPSObGrgTGRg8eeIWzLeqOXlVMoiSTXw7hjxCvI8V4nlV8T_5XdTu6QG0cLUW7RRtRcpNipoyGQuKQvnKJD4TvVleEtC2gOviJh5GnWl2Wae4IOa_nTU0EpvX7oEwqMLtVAExoQSDF26z3D4nM46khrYWbjFykMtvWqESNexJ9ph2ndWybwfL4ADCQWXPHlc0t6cfwzV0Y9Xt9qrBQQ2XNYbeBQzIf5ZvKfKEi8F3G_q43RU0l2CUMvOSMHueVK1igtMsIs2EjV0aZiH4BmSkOQ8uKijgWu0w0AyjXAYRKofJH_tGUUIe7ygwU-H00CHiPuZR4Sn-Bf2DNIT4cA-yCKrs4H0beijq1XIQY8MD3xBBXBQ6y3ds0Qy10j3sXAgh8DvoylT0UXpYBmyGO-AbV43W8vWQA5e3mtjKWg3XpX6MDAo1-z8uFEWMhR_fcCVqv9j3eagSIRAX0arw4N56QMzko6Xpp63AdMFROsWbt2DHe-L7th_UiSzyHCScmd08yfUAji7DGaoptAYsDnK8goJVhjKWuUh29Eyr9HCGsTIxP2MBZl9fzvz-mlX5P51aelvvLn5TeqHZi-kngR4iTOTLfFTftmKNxjF_eNjX9CO_QMuuLrvopGqIKQ_e7-jZTdxCuvtNHsQ3DTujCPWtTWGwMqm_ymTUdssQhyAOs80ojrb66tf_BUtJPkwbOZ1tqET2csME_qtHUK-0q0]--></g></svg>