<svg xmlns="http://www.w3.org/2000/svg" xmlns:xlink="http://www.w3.org/1999/xlink" contentStyleType="text/css" data-diagram-type="ACTIVITY" height="1021px" preserveAspectRatio="none" style="width:754px;height:1021px;background:#FFFFFF;" version="1.1" viewBox="0 0 754 1021" width="754px" zoomAndPan="magnify"><title>EasySave - Diagramme d'activité : Consultation des logs "Journalier"</title><defs/><g><g class="title" data-source-line="1"><text fill="#000000" font-family="sans-serif" font-size="14" font-weight="bold" lengthAdjust="spacing" textLength="542.083" x="104.8704" y="32.9951">EasySave - Diagramme d'activité : Consultation des logs "Journalier"</text></g><rect fill="none" height="20.9531" style="stroke:none;stroke-width:1;" width="721.8237" x="15" y="50.042"/><ellipse cx="127.1611" cy="85.9951" fill="#222222" rx="10" ry="10" style="stroke:#222222;stroke-width:1;"/><rect fill="#F1F1F1" height="47.9375" rx="12.5" ry="12.5" style="stroke:#181818;stroke-width:0.5;" width="170.6504" x="41.8359" y="115.9951"/><text fill="#000000" font-family="sans-serif" font-size="12" lengthAdjust="spacing" textLength="150.6504" x="51.8359" y="137.1338">Cliquer sur l'icône "Logs"</text><text fill="#000000" font-family="sans-serif" font-size="12" lengthAdjust="spacing" textLength="108.5332" x="51.8359" y="151.1025">(en bas à gauche)</text><rect fill="#F1F1F1" height="33.9688" rx="12.5" ry="12.5" style="stroke:#181818;stroke-width:0.5;" width="205.8418" x="24.2402" y="305.8389"/><text fill="#000000" font-family="sans-serif" font-size="12" lengthAdjust="spacing" textLength="185.8418" x="34.2402" y="326.9775">Cliquer sur l'onglet "Journalier"</text><rect fill="#F1F1F1" height="33.9688" rx="12.5" ry="12.5" style="stroke:#181818;stroke-width:0.5;" width="212.3223" x="21" y="589.7139"/><text fill="#000000" font-family="sans-serif" font-size="12" lengthAdjust="spacing" textLength="192.3223" x="31" y="610.8525">Sélectionner un log dans la liste</text><rect fill="#F1F1F1" height="61.9063" rx="12.5" ry="12.5" style="stroke:#181818;stroke-width:0.5;" width="175.4668" x="39.4277" y="807.4951"/><text fill="#000000" font-family="sans-serif" font-size="12" lengthAdjust="spacing" textLength="108.3398" x="49.4277" y="828.6338">Choisir une action</text><text fill="#000000" font-family="sans-serif" font-size="12" lengthAdjust="spacing" textLength="155.4668" x="49.4277" y="842.6025">(sélectionner un autre log</text><text fill="#000000" font-family="sans-serif" font-size="12" lengthAdjust="spacing" textLength="112.0137" x="49.4277" y="856.5713">ou quitter la page)</text><polygon fill="#F1F1F1" points="60.863,889.4014,193.4592,889.4014,205.4592,901.4014,193.4592,913.4014,60.863,913.4014,48.863,901.4014,60.863,889.4014" style="stroke:#181818;stroke-width:0.5;"/><text fill="#000000" font-family="sans-serif" font-size="11" lengthAdjust="spacing" textLength="132.5962" x="60.863" y="905.2095">Consulter un autre log ?</text><text fill="#000000" font-family="sans-serif" font-size="11" lengthAdjust="spacing" textLength="18.686" x="205.4592" y="898.8071">Oui</text><rect fill="#F1F1F1" height="33.9688" rx="12.5" ry="12.5" style="stroke:#181818;stroke-width:0.5;" width="142.1094" x="56.1064" y="933.4014"/><text fill="#000000" font-family="sans-serif" font-size="12" lengthAdjust="spacing" textLength="122.1094" x="66.1064" y="954.54">Quitter la page Logs</text><ellipse cx="127.1611" cy="998.3701" fill="none" rx="11" ry="11" style="stroke:#222222;stroke-width:1;"/><ellipse cx="127.1611" cy="998.3701" fill="#222222" rx="6" ry="6" style="stroke:#222222;stroke-width:1;"/><line style="stroke:#000000;stroke-width:1.5;" x1="15" x2="15" y1="50.042" y2="1009.3701"/><rect fill="#F1F1F1" height="33.9688" rx="12.5" ry="12.5" style="stroke:#181818;stroke-width:0.5;" width="137.3516" x="432.2041" y="183.9326"/><text fill="#000000" font-family="sans-serif" font-size="12" lengthAdjust="spacing" textLength="117.3516" x="442.2041" y="205.0713">Ouvrir la page Logs</text><rect fill="#F1F1F1" height="47.9375" rx="12.5" ry="12.5" style="stroke:#181818;stroke-width:0.5;" width="135.3477" x="433.2061" y="237.9014"/><text fill="#000000" font-family="sans-serif" font-size="12" lengthAdjust="spacing" textLength="115.3477" x="443.2061" y="259.04">Afficher les onglets</text><text fill="#000000" font-family="sans-serif" font-size="12" lengthAdjust="spacing" textLength="102.7441" x="443.2061" y="273.0088">(Journalier / Etat)</text><rect fill="#F1F1F1" height="33.9688" rx="12.5" ry="12.5" style="stroke:#181818;stroke-width:0.5;" width="232.1797" x="384.79" y="359.8076"/><text fill="#000000" font-family="sans-serif" font-size="12" lengthAdjust="spacing" textLength="212.1797" x="394.79" y="380.9463">Charger la liste des logs journaliers</text><polygon fill="#F1F1F1" points="460.9055,413.7764,540.8542,413.7764,552.8542,425.7764,540.8542,437.7764,460.9055,437.7764,448.9055,425.7764,460.9055,413.7764" style="stroke:#181818;stroke-width:0.5;"/><text fill="#000000" font-family="sans-serif" font-size="11" lengthAdjust="spacing" textLength="79.9487" x="460.9055" y="429.5845">Logs trouvés ?</text><text fill="#000000" font-family="sans-serif" font-size="11" lengthAdjust="spacing" textLength="18.686" x="430.2195" y="423.1821">Oui</text><text fill="#000000" font-family="sans-serif" font-size="11" lengthAdjust="spacing" textLength="21.9302" x="552.8542" y="423.1821">Non</text><rect fill="#F1F1F1" height="47.9375" rx="12.5" ry="12.5" style="stroke:#181818;stroke-width:0.5;" width="261.2949" x="243.3223" y="447.7764"/><text fill="#000000" font-family="sans-serif" font-size="12" lengthAdjust="spacing" textLength="241.2949" x="253.3223" y="468.915">Afficher la liste dans un menu déroulant</text><text fill="#000000" font-family="sans-serif" font-size="12" lengthAdjust="spacing" textLength="153.6738" x="253.3223" y="482.8838">(ex: par date / fichier log)</text><rect fill="#F1F1F1" height="33.9688" rx="12.5" ry="12.5" style="stroke:#181818;stroke-width:0.5;" width="206.3457" x="524.6172" y="447.7764"/><text fill="#000000" font-family="sans-serif" font-size="12" lengthAdjust="spacing" textLength="186.3457" x="534.6172" y="468.915">Afficher "Aucun log disponible"</text><polygon fill="#F1F1F1" points="500.8799,501.7139,512.8799,513.7139,500.8799,525.7139,488.8799,513.7139,500.8799,501.7139" style="stroke:#181818;stroke-width:0.5;"/><rect fill="#F1F1F1" height="33.9688" rx="12.5" ry="12.5" style="stroke:#181818;stroke-width:0.5;" width="295.4375" x="353.1611" y="643.6826"/><text fill="#000000" font-family="sans-serif" font-size="12" lengthAdjust="spacing" textLength="275.4375" x="363.1611" y="664.8213">Dérouler / afficher le détail du log sélectionné</text><rect fill="#F1F1F1" height="89.8438" rx="12.5" ry="12.5" style="stroke:#181818;stroke-width:0.5;" width="405.4121" x="298.1738" y="697.6514"/><text fill="#000000" font-family="sans-serif" font-size="12" lengthAdjust="spacing" textLength="154.6875" x="308.1738" y="718.79">Afficher les informations :</text><text fill="#000000" font-family="sans-serif" font-size="12" lengthAdjust="spacing" textLength="62.0449" x="308.1738" y="732.7588">- JobName</text><text fill="#000000" font-family="sans-serif" font-size="12" lengthAdjust="spacing" textLength="385.4121" x="308.1738" y="746.7275">- State (0: Active, 1: Paused, 2: Completed, 3: Error, 4: Pending)</text><text fill="#000000" font-family="sans-serif" font-size="12" lengthAdjust="spacing" textLength="123.5859" x="308.1738" y="760.6963">- Timestamp (heure)</text><text fill="#000000" font-family="sans-serif" font-size="12" lengthAdjust="spacing" textLength="160.1074" x="308.1738" y="774.665">- TotalFiles (nb de fichiers)</text><polygon fill="#F1F1F1" points="500.8799,545.7139,512.8799,557.7139,500.8799,569.7139,488.8799,557.7139,500.8799,545.7139" style="stroke:#181818;stroke-width:0.5;"/><line style="stroke:#000000;stroke-width:1.5;" x1="237.3223" x2="237.3223" y1="50.042" y2="1009.3701"/><line style="stroke:#000000;stroke-width:1.5;" x1="734.9629" x2="734.9629" y1="50.042" y2="1009.3701"/><line style="stroke:#181818;stroke-width:1;" x1="127.1611" x2="127.1611" y1="95.9951" y2="115.9951"/><polygon fill="#181818" points="123.1611,105.9951,127.1611,115.9951,131.1611,105.9951,127.1611,109.9951" style="stroke:#181818;stroke-width:1;"/><line style="stroke:#181818;stroke-width:1;" x1="127.1611" x2="127.1611" y1="869.4014" y2="889.4014"/><polygon fill="#181818" points="123.1611,879.4014,127.1611,889.4014,131.1611,879.4014,127.1611,883.4014" style="stroke:#181818;stroke-width:1;"/><line style="stroke:#181818;stroke-width:1;" x1="127.1611" x2="127.1611" y1="913.4014" y2="933.4014"/><polygon fill="#181818" points="123.1611,923.4014,127.1611,933.4014,131.1611,923.4014,127.1611,927.4014" style="stroke:#181818;stroke-width:1;"/><line style="stroke:#181818;stroke-width:1;" x1="127.1611" x2="127.1611" y1="967.3701" y2="987.3701"/><polygon fill="#181818" points="123.1611,977.3701,127.1611,987.3701,131.1611,977.3701,127.1611,981.3701" style="stroke:#181818;stroke-width:1;"/><line style="stroke:#181818;stroke-width:1;" x1="500.8799" x2="500.8799" y1="217.9014" y2="237.9014"/><polygon fill="#181818" points="496.8799,227.9014,500.8799,237.9014,504.8799,227.9014,500.8799,231.9014" style="stroke:#181818;stroke-width:1;"/><line style="stroke:#181818;stroke-width:1;" x1="448.9055" x2="373.9697" y1="425.7764" y2="425.7764"/><line style="stroke:#181818;stroke-width:1;" x1="373.9697" x2="373.9697" y1="425.7764" y2="447.7764"/><polygon fill="#181818" points="369.9697,437.7764,373.9697,447.7764,377.9697,437.7764,373.9697,441.7764" style="stroke:#181818;stroke-width:1;"/><line style="stroke:#181818;stroke-width:1;" x1="552.8542" x2="627.79" y1="425.7764" y2="425.7764"/><line style="stroke:#181818;stroke-width:1;" x1="627.79" x2="627.79" y1="425.7764" y2="447.7764"/><polygon fill="#181818" points="623.79,437.7764,627.79,447.7764,631.79,437.7764,627.79,441.7764" style="stroke:#181818;stroke-width:1;"/><line style="stroke:#181818;stroke-width:1;" x1="373.9697" x2="373.9697" y1="495.7139" y2="513.7139"/><line style="stroke:#181818;stroke-width:1;" x1="373.9697" x2="488.8799" y1="513.7139" y2="513.7139"/><polygon fill="#181818" points="478.8799,509.7139,488.8799,513.7139,478.8799,517.7139,482.8799,513.7139" style="stroke:#181818;stroke-width:1;"/><line style="stroke:#181818;stroke-width:1;" x1="627.79" x2="627.79" y1="481.7451" y2="513.7139"/><line style="stroke:#181818;stroke-width:1;" x1="627.79" x2="512.8799" y1="513.7139" y2="513.7139"/><polygon fill="#181818" points="522.8799,509.7139,512.8799,513.7139,522.8799,517.7139,518.8799,513.7139" style="stroke:#181818;stroke-width:1;"/><line style="stroke:#181818;stroke-width:1;" x1="500.8799" x2="500.8799" y1="393.7764" y2="413.7764"/><polygon fill="#181818" points="496.8799,403.7764,500.8799,413.7764,504.8799,403.7764,500.8799,407.7764" style="stroke:#181818;stroke-width:1;"/><line style="stroke:#181818;stroke-width:1;" x1="500.8799" x2="500.8799" y1="677.6514" y2="697.6514"/><polygon fill="#181818" points="496.8799,687.6514,500.8799,697.6514,504.8799,687.6514,500.8799,691.6514" style="stroke:#181818;stroke-width:1;"/><line style="stroke:#181818;stroke-width:1;" x1="500.8799" x2="500.8799" y1="525.7139" y2="545.7139"/><polygon fill="#181818" points="496.8799,535.7139,500.8799,545.7139,504.8799,535.7139,500.8799,539.7139" style="stroke:#181818;stroke-width:1;"/><line style="stroke:#181818;stroke-width:1;" x1="127.1611" x2="127.1611" y1="163.9326" y2="168.9326"/><line style="stroke:#181818;stroke-width:1;" x1="127.1611" x2="500.8799" y1="168.9326" y2="168.9326"/><line style="stroke:#181818;stroke-width:1;" x1="500.8799" x2="500.8799" y1="168.9326" y2="183.9326"/><polygon fill="#181818" points="496.8799,173.9326,500.8799,183.9326,504.8799,173.9326,500.8799,177.9326" style="stroke:#181818;stroke-width:1;"/><line style="stroke:#181818;stroke-width:1;" x1="500.8799" x2="500.8799" y1="285.8389" y2="290.8389"/><line style="stroke:#181818;stroke-width:1;" x1="500.8799" x2="127.1611" y1="290.8389" y2="290.8389"/><line style="stroke:#181818;stroke-width:1;" x1="127.1611" x2="127.1611" y1="290.8389" y2="305.8389"/><polygon fill="#181818" points="123.1611,295.8389,127.1611,305.8389,131.1611,295.8389,127.1611,299.8389" style="stroke:#181818;stroke-width:1;"/><line style="stroke:#181818;stroke-width:1;" x1="127.1611" x2="127.1611" y1="339.8076" y2="344.8076"/><line style="stroke:#181818;stroke-width:1;" x1="127.1611" x2="500.8799" y1="344.8076" y2="344.8076"/><line style="stroke:#181818;stroke-width:1;" x1="500.8799" x2="500.8799" y1="344.8076" y2="359.8076"/><polygon fill="#181818" points="496.8799,349.8076,500.8799,359.8076,504.8799,349.8076,500.8799,353.8076" style="stroke:#181818;stroke-width:1;"/><line style="stroke:#181818;stroke-width:1;" x1="127.1611" x2="127.1611" y1="623.6826" y2="628.6826"/><line style="stroke:#181818;stroke-width:1;" x1="127.1611" x2="500.8799" y1="628.6826" y2="628.6826"/><line style="stroke:#181818;stroke-width:1;" x1="500.8799" x2="500.8799" y1="628.6826" y2="643.6826"/><polygon fill="#181818" points="496.8799,633.6826,500.8799,643.6826,504.8799,633.6826,500.8799,637.6826" style="stroke:#181818;stroke-width:1;"/><line style="stroke:#181818;stroke-width:1;" x1="500.8799" x2="500.8799" y1="787.4951" y2="792.4951"/><line style="stroke:#181818;stroke-width:1;" x1="500.8799" x2="127.1611" y1="792.4951" y2="792.4951"/><line style="stroke:#181818;stroke-width:1;" x1="127.1611" x2="127.1611" y1="792.4951" y2="807.4951"/><polygon fill="#181818" points="123.1611,797.4951,127.1611,807.4951,131.1611,797.4951,127.1611,801.4951" style="stroke:#181818;stroke-width:1;"/><line style="stroke:#181818;stroke-width:1;" x1="500.8799" x2="500.8799" y1="569.7139" y2="574.7139"/><line style="stroke:#181818;stroke-width:1;" x1="500.8799" x2="127.1611" y1="574.7139" y2="574.7139"/><line style="stroke:#181818;stroke-width:1;" x1="127.1611" x2="127.1611" y1="574.7139" y2="589.7139"/><polygon fill="#181818" points="123.1611,579.7139,127.1611,589.7139,131.1611,579.7139,127.1611,583.7139" style="stroke:#181818;stroke-width:1;"/><line style="stroke:#181818;stroke-width:1;" x1="48.863" x2="341.8672" y1="901.4014" y2="901.4014"/><polygon fill="#181818" points="337.8672,732.0576,341.8672,722.0576,345.8672,732.0576,341.8672,728.0576" style="stroke:#181818;stroke-width:1;"/><line style="stroke:#181818;stroke-width:1;" x1="341.8672" x2="341.8672" y1="557.7139" y2="901.4014"/><line style="stroke:#181818;stroke-width:1;" x1="341.8672" x2="488.8799" y1="557.7139" y2="557.7139"/><polygon fill="#181818" points="498.8799,553.7139,488.8799,557.7139,498.8799,561.7139,494.8799,557.7139" style="stroke:#181818;stroke-width:1;"/><text fill="#000000" font-family="sans-serif" font-size="18" lengthAdjust="spacing" textLength="92.584" x="79.8691" y="66.75">Utilisateur</text><text fill="#000000" font-family="sans-serif" font-size="18" lengthAdjust="spacing" textLength="100.5732" x="435.856" y="66.75">Application</text><!--SRC=[PLExZjim4Epr5Git9mDtkBmgkGWCdrCSWhi4JZetQsijRK2HEdBf980_9gtx_85-B4lvTN8wYTWPpimEXSKGp37yNk2Mu0uU62kFJKDGtk1QUClIxQ60cRCX6a5XPw6a0CPL0KQFBdgBXicFicptNTXmGA7eTraGz98LCyClaJo4wC7SyBhxQmb6dnKzMjgSBAmmGFS7AephciOJfPcshU5rVzKkAvxZrhDY4Lgi219oaXNJpOPrNizLYxEL8GdATz43zp1NkJtXGDULeWDsuEH_3RCQVKMz22KIkYJmumnJLRo1FEa3yIvkkts0ZsEGMatcpv776S0htMSgj06YXOPiXBBRAzIWbHJEhq8zUvtGiNj8m6HCxrLNP091_kJia7OqZMibqnaeERJEyigGEY9RyYRBFBM4eeXX9igmwFQ6riclLPeJHT9sKggnA6uGZE8U3ehxmF6obEH4a0sKiMSA5_fkFnaceLcotJZVzAm1YgMzWqUtUiA6qkT2KW3vcmAcgP5q2syB-88nK7aBxr8tcrPtcFxU5p3ttlbR-A0ZoRIjnedZ6pUaZMnQo6krJ8T39sW-SHAGsvKkzPHn61_CNeSqgnq7Jl4GOEz6rnIkayCedfBhfNKHNYABqBd0YVcm1VXPwzMG7v_M5JPLXyEnEDSL_ZhaF3uAVNAk_GS0]--></g></svg>